<mxfile host="Electron" agent="Mozilla/5.0 (Macintosh; Intel Mac OS X 10_15_7) AppleWebKit/537.36 (KHTML, like Gecko) draw.io/25.0.2 Chrome/128.0.6613.186 Electron/32.2.5 Safari/537.36" version="25.0.2" pages="3">
  <diagram name="Filter design" id="-nWKwFPmtfp9g84GdR-Q">
    <mxGraphModel dx="1304" dy="776" grid="1" gridSize="10" guides="1" tooltips="1" connect="1" arrows="1" fold="1" page="1" pageScale="1" pageWidth="827" pageHeight="1169" math="0" shadow="0">
      <root>
        <mxCell id="0" />
        <mxCell id="1" parent="0" />
        <mxCell id="rrVpyW1jrfczg0Avx1So-1" value="Comb filter 1" style="rounded=0;whiteSpace=wrap;html=1;" parent="1" vertex="1">
          <mxGeometry x="280" y="160" width="120" height="60" as="geometry" />
        </mxCell>
        <mxCell id="rrVpyW1jrfczg0Avx1So-2" value="&lt;b&gt;Input audio&lt;/b&gt;" style="pointerEvents=1;verticalLabelPosition=bottom;shadow=0;dashed=0;align=center;html=1;verticalAlign=top;shape=mxgraph.electrical.waveforms.sine_wave;" parent="1" vertex="1">
          <mxGeometry x="90" y="237" width="90" height="66.18" as="geometry" />
        </mxCell>
        <mxCell id="rrVpyW1jrfczg0Avx1So-3" value="" style="endArrow=blockThin;html=1;rounded=0;entryX=0;entryY=0.5;entryDx=0;entryDy=0;edgeStyle=orthogonalEdgeStyle;startArrow=none;startFill=0;endFill=1;" parent="1" target="rrVpyW1jrfczg0Avx1So-1" edge="1">
          <mxGeometry width="50" height="50" relative="1" as="geometry">
            <mxPoint x="190" y="270" as="sourcePoint" />
            <mxPoint x="240" y="220" as="targetPoint" />
            <Array as="points">
              <mxPoint x="240" y="270" />
              <mxPoint x="240" y="190" />
            </Array>
          </mxGeometry>
        </mxCell>
        <mxCell id="rrVpyW1jrfczg0Avx1So-4" value="Comb filter 2" style="rounded=0;whiteSpace=wrap;html=1;" parent="1" vertex="1">
          <mxGeometry x="280" y="240.09" width="120" height="60" as="geometry" />
        </mxCell>
        <mxCell id="rrVpyW1jrfczg0Avx1So-5" value="Comb filter 3" style="rounded=0;whiteSpace=wrap;html=1;" parent="1" vertex="1">
          <mxGeometry x="280" y="320" width="120" height="60" as="geometry" />
        </mxCell>
        <mxCell id="rrVpyW1jrfczg0Avx1So-7" value="" style="endArrow=none;html=1;rounded=0;exitX=0;exitY=0.5;exitDx=0;exitDy=0;startArrow=blockThin;startFill=1;" parent="1" source="rrVpyW1jrfczg0Avx1So-4" edge="1">
          <mxGeometry width="50" height="50" relative="1" as="geometry">
            <mxPoint x="190" y="360" as="sourcePoint" />
            <mxPoint x="240" y="270" as="targetPoint" />
          </mxGeometry>
        </mxCell>
        <mxCell id="rrVpyW1jrfczg0Avx1So-8" value="" style="endArrow=none;html=1;rounded=0;exitX=0;exitY=0.5;exitDx=0;exitDy=0;edgeStyle=orthogonalEdgeStyle;startArrow=blockThin;startFill=1;" parent="1" source="rrVpyW1jrfczg0Avx1So-5" edge="1">
          <mxGeometry width="50" height="50" relative="1" as="geometry">
            <mxPoint x="290" y="280" as="sourcePoint" />
            <mxPoint x="240" y="270" as="targetPoint" />
            <Array as="points">
              <mxPoint x="240" y="350" />
            </Array>
          </mxGeometry>
        </mxCell>
        <mxCell id="rrVpyW1jrfczg0Avx1So-10" value="" style="endArrow=none;html=1;rounded=0;exitX=0;exitY=0.5;exitDx=0;exitDy=0;edgeStyle=orthogonalEdgeStyle;startArrow=blockThin;startFill=1;" parent="1" edge="1">
          <mxGeometry width="50" height="50" relative="1" as="geometry">
            <mxPoint x="280" y="429.52" as="sourcePoint" />
            <mxPoint x="240" y="349.52" as="targetPoint" />
            <Array as="points">
              <mxPoint x="240" y="429" />
            </Array>
          </mxGeometry>
        </mxCell>
        <mxCell id="rrVpyW1jrfczg0Avx1So-11" value="Comb filter ..." style="rounded=0;whiteSpace=wrap;html=1;" parent="1" vertex="1">
          <mxGeometry x="280" y="400" width="120" height="60" as="geometry" />
        </mxCell>
        <mxCell id="rrVpyW1jrfczg0Avx1So-12" value="" style="endArrow=none;html=1;rounded=0;exitX=0;exitY=0.5;exitDx=0;exitDy=0;edgeStyle=orthogonalEdgeStyle;startArrow=blockThin;startFill=1;" parent="1" edge="1">
          <mxGeometry width="50" height="50" relative="1" as="geometry">
            <mxPoint x="280" y="510" as="sourcePoint" />
            <mxPoint x="240" y="430" as="targetPoint" />
          </mxGeometry>
        </mxCell>
        <mxCell id="rrVpyW1jrfczg0Avx1So-13" value="Comb filter N&lt;sub&gt;FCF&lt;/sub&gt;" style="rounded=0;whiteSpace=wrap;html=1;" parent="1" vertex="1">
          <mxGeometry x="280" y="480" width="120" height="60" as="geometry" />
        </mxCell>
        <mxCell id="rrVpyW1jrfczg0Avx1So-14" value="" style="endArrow=blockThin;html=1;rounded=0;exitX=1;exitY=0.5;exitDx=0;exitDy=0;edgeStyle=orthogonalEdgeStyle;endFill=1;" parent="1" source="rrVpyW1jrfczg0Avx1So-19" edge="1">
          <mxGeometry width="50" height="50" relative="1" as="geometry">
            <mxPoint x="510" y="450" as="sourcePoint" />
            <mxPoint x="520" y="270" as="targetPoint" />
            <Array as="points" />
          </mxGeometry>
        </mxCell>
        <mxCell id="rrVpyW1jrfczg0Avx1So-15" value="" style="endArrow=none;html=1;rounded=0;exitX=1;exitY=0.5;exitDx=0;exitDy=0;edgeStyle=orthogonalEdgeStyle;endFill=0;" parent="1" edge="1">
          <mxGeometry width="50" height="50" relative="1" as="geometry">
            <mxPoint x="400" y="429.86" as="sourcePoint" />
            <mxPoint x="470" y="430" as="targetPoint" />
            <Array as="points">
              <mxPoint x="470" y="429.86" />
            </Array>
          </mxGeometry>
        </mxCell>
        <mxCell id="rrVpyW1jrfczg0Avx1So-16" value="" style="endArrow=none;html=1;rounded=0;exitX=1;exitY=0.5;exitDx=0;exitDy=0;edgeStyle=orthogonalEdgeStyle;endFill=0;" parent="1" edge="1">
          <mxGeometry width="50" height="50" relative="1" as="geometry">
            <mxPoint x="400" y="349.86" as="sourcePoint" />
            <mxPoint x="470" y="350" as="targetPoint" />
            <Array as="points">
              <mxPoint x="470" y="349.86" />
            </Array>
          </mxGeometry>
        </mxCell>
        <mxCell id="rrVpyW1jrfczg0Avx1So-17" value="" style="endArrow=blockThin;html=1;rounded=0;edgeStyle=orthogonalEdgeStyle;endFill=1;" parent="1" edge="1">
          <mxGeometry width="50" height="50" relative="1" as="geometry">
            <mxPoint x="400" y="269.99" as="sourcePoint" />
            <mxPoint x="460" y="270.08000000000004" as="targetPoint" />
            <Array as="points">
              <mxPoint x="460" y="269.94000000000005" />
            </Array>
          </mxGeometry>
        </mxCell>
        <mxCell id="rrVpyW1jrfczg0Avx1So-18" value="" style="endArrow=blockThin;html=1;rounded=0;exitX=1;exitY=0.5;exitDx=0;exitDy=0;edgeStyle=orthogonalEdgeStyle;endFill=1;" parent="1" edge="1">
          <mxGeometry width="50" height="50" relative="1" as="geometry">
            <mxPoint x="400" y="189.86000000000004" as="sourcePoint" />
            <mxPoint x="470" y="260" as="targetPoint" />
            <Array as="points">
              <mxPoint x="470" y="189.86000000000004" />
            </Array>
          </mxGeometry>
        </mxCell>
        <mxCell id="rrVpyW1jrfczg0Avx1So-20" value="" style="endArrow=blockThin;html=1;rounded=0;exitX=1;exitY=0.5;exitDx=0;exitDy=0;edgeStyle=orthogonalEdgeStyle;endFill=1;" parent="1" source="rrVpyW1jrfczg0Avx1So-13" target="rrVpyW1jrfczg0Avx1So-19" edge="1">
          <mxGeometry width="50" height="50" relative="1" as="geometry">
            <mxPoint x="400" y="510" as="sourcePoint" />
            <mxPoint x="500" y="270" as="targetPoint" />
            <Array as="points">
              <mxPoint x="470" y="510" />
            </Array>
          </mxGeometry>
        </mxCell>
        <mxCell id="rrVpyW1jrfczg0Avx1So-19" value="" style="shape=sumEllipse;perimeter=ellipsePerimeter;whiteSpace=wrap;html=1;backgroundOutline=1;" parent="1" vertex="1">
          <mxGeometry x="460" y="260.09" width="20" height="20" as="geometry" />
        </mxCell>
        <mxCell id="rrVpyW1jrfczg0Avx1So-22" value="" style="shape=sumEllipse;perimeter=ellipsePerimeter;whiteSpace=wrap;html=1;backgroundOutline=1;" parent="1" vertex="1">
          <mxGeometry x="870" y="260.09" width="20" height="20" as="geometry" />
        </mxCell>
        <mxCell id="rrVpyW1jrfczg0Avx1So-24" value="Wet&lt;div&gt;Signal&lt;/div&gt;" style="endArrow=blockThin;html=1;rounded=0;exitX=1;exitY=0.5;exitDx=0;exitDy=0;edgeStyle=orthogonalEdgeStyle;endFill=1;entryX=0;entryY=0.5;entryDx=0;entryDy=0;" parent="1" edge="1" target="rrVpyW1jrfczg0Avx1So-22" source="5cLPz73XL0IL-f-i9ZFR-3">
          <mxGeometry x="0.08" y="17" width="50" height="50" relative="1" as="geometry">
            <mxPoint x="830" y="273.01" as="sourcePoint" />
            <mxPoint x="870" y="273.01" as="targetPoint" />
            <Array as="points" />
            <mxPoint as="offset" />
          </mxGeometry>
        </mxCell>
        <mxCell id="rrVpyW1jrfczg0Avx1So-25" value="Dry signal" style="endArrow=blockThin;html=1;rounded=0;edgeStyle=orthogonalEdgeStyle;endFill=1;entryX=0.5;entryY=0;entryDx=0;entryDy=0;" parent="1" edge="1" target="rrVpyW1jrfczg0Avx1So-22">
          <mxGeometry x="0.8788" y="30" width="50" height="50" relative="1" as="geometry">
            <mxPoint x="240" y="190" as="sourcePoint" />
            <mxPoint x="690" y="240" as="targetPoint" />
            <Array as="points">
              <mxPoint x="240" y="120" />
              <mxPoint x="880" y="120" />
            </Array>
            <mxPoint as="offset" />
          </mxGeometry>
        </mxCell>
        <mxCell id="rrVpyW1jrfczg0Avx1So-26" value="&lt;b&gt;Mixed signal&lt;/b&gt;" style="endArrow=block;html=1;rounded=0;exitX=1;exitY=0.5;exitDx=0;exitDy=0;edgeStyle=orthogonalEdgeStyle;endFill=1;" parent="1" edge="1">
          <mxGeometry x="-0.0016" y="10" width="50" height="50" relative="1" as="geometry">
            <mxPoint x="890" y="272.90999999999997" as="sourcePoint" />
            <mxPoint x="1010" y="273.09" as="targetPoint" />
            <Array as="points">
              <mxPoint x="950" y="273" />
            </Array>
            <mxPoint x="1" as="offset" />
          </mxGeometry>
        </mxCell>
        <mxCell id="rrVpyW1jrfczg0Avx1So-27" value="&lt;b&gt;Output audio&lt;/b&gt;" style="pointerEvents=1;verticalLabelPosition=bottom;shadow=0;dashed=0;align=center;html=1;verticalAlign=top;shape=mxgraph.electrical.waveforms.sine_wave;" parent="1" vertex="1">
          <mxGeometry x="1017" y="240.09" width="90" height="66.18" as="geometry" />
        </mxCell>
        <mxCell id="rrVpyW1jrfczg0Avx1So-28" value="&lt;b&gt;Filter design&amp;nbsp;&lt;/b&gt;&lt;span style=&quot;background-color: initial;&quot;&gt;Reverb&lt;/span&gt;" style="shape=umlFrame;whiteSpace=wrap;html=1;pointerEvents=0;width=140;height=20;" parent="1" vertex="1">
          <mxGeometry x="80" y="90" width="1040" height="470" as="geometry" />
        </mxCell>
        <mxCell id="5cLPz73XL0IL-f-i9ZFR-1" value="All pass filter 1" style="rounded=0;whiteSpace=wrap;html=1;" vertex="1" parent="1">
          <mxGeometry x="520" y="240.09" width="80" height="60" as="geometry" />
        </mxCell>
        <mxCell id="5cLPz73XL0IL-f-i9ZFR-2" value="All pass filter&lt;div&gt;...&lt;/div&gt;" style="rounded=0;whiteSpace=wrap;html=1;" vertex="1" parent="1">
          <mxGeometry x="630" y="240.09" width="80" height="60" as="geometry" />
        </mxCell>
        <mxCell id="5cLPz73XL0IL-f-i9ZFR-3" value="All pass filter&lt;div&gt;N&lt;sub&gt;AP&lt;/sub&gt;&lt;/div&gt;" style="rounded=0;whiteSpace=wrap;html=1;" vertex="1" parent="1">
          <mxGeometry x="740" y="240.09000000000003" width="80" height="60" as="geometry" />
        </mxCell>
        <mxCell id="5cLPz73XL0IL-f-i9ZFR-6" value="" style="endArrow=blockThin;html=1;rounded=0;exitX=1;exitY=0.5;exitDx=0;exitDy=0;edgeStyle=orthogonalEdgeStyle;endFill=1;entryX=0;entryY=0.5;entryDx=0;entryDy=0;" edge="1" parent="1" source="5cLPz73XL0IL-f-i9ZFR-1" target="5cLPz73XL0IL-f-i9ZFR-2">
          <mxGeometry width="50" height="50" relative="1" as="geometry">
            <mxPoint x="610" y="279.89" as="sourcePoint" />
            <mxPoint x="640" y="280" as="targetPoint" />
            <Array as="points" />
          </mxGeometry>
        </mxCell>
        <mxCell id="5cLPz73XL0IL-f-i9ZFR-7" value="" style="endArrow=blockThin;html=1;rounded=0;exitX=1;exitY=0.5;exitDx=0;exitDy=0;edgeStyle=orthogonalEdgeStyle;endFill=1;entryX=0;entryY=0.5;entryDx=0;entryDy=0;" edge="1" parent="1">
          <mxGeometry width="50" height="50" relative="1" as="geometry">
            <mxPoint x="710" y="269.99" as="sourcePoint" />
            <mxPoint x="740" y="269.99" as="targetPoint" />
            <Array as="points" />
          </mxGeometry>
        </mxCell>
      </root>
    </mxGraphModel>
  </diagram>
  <diagram id="xgof9hFRnY9t-OLjASz8" name="Class diagram">
    <mxGraphModel dx="1434" dy="854" grid="1" gridSize="10" guides="1" tooltips="1" connect="1" arrows="1" fold="1" page="1" pageScale="1" pageWidth="827" pageHeight="1169" math="0" shadow="0">
      <root>
        <mxCell id="0" />
        <mxCell id="1" parent="0" />
        <mxCell id="Sr8w_J_Qba0QPRck5NJF-1" value="&amp;lt;&amp;lt;class&amp;gt;&amp;gt;&lt;br&gt;ReverbEffect" style="swimlane;fontStyle=1;align=center;verticalAlign=top;childLayout=stackLayout;horizontal=1;startSize=40;horizontalStack=0;resizeParent=1;resizeParentMax=0;resizeLast=0;collapsible=1;marginBottom=0;whiteSpace=wrap;html=1;" vertex="1" parent="1">
          <mxGeometry x="280" y="340" width="220" height="230" as="geometry" />
        </mxCell>
        <mxCell id="Sr8w_J_Qba0QPRck5NJF-2" value="+ allpassReverberatorChainInstance : allpassReverberatorChain&lt;div&gt;+ feedbackCombFilterArrayInstance : feedbackCombFilterChain&lt;/div&gt;&lt;div&gt;+ mix : coeff_t&amp;nbsp;&lt;/div&gt;" style="text;strokeColor=none;fillColor=none;align=left;verticalAlign=top;spacingLeft=4;spacingRight=4;overflow=hidden;rotatable=0;points=[[0,0.5],[1,0.5]];portConstraint=eastwest;whiteSpace=wrap;html=1;" vertex="1" parent="Sr8w_J_Qba0QPRck5NJF-1">
          <mxGeometry y="40" width="220" height="80" as="geometry" />
        </mxCell>
        <mxCell id="Sr8w_J_Qba0QPRck5NJF-3" value="" style="line;strokeWidth=1;fillColor=none;align=left;verticalAlign=middle;spacingTop=-1;spacingLeft=3;spacingRight=3;rotatable=0;labelPosition=right;points=[];portConstraint=eastwest;strokeColor=inherit;" vertex="1" parent="Sr8w_J_Qba0QPRck5NJF-1">
          <mxGeometry y="120" width="220" height="8" as="geometry" />
        </mxCell>
        <mxCell id="Sr8w_J_Qba0QPRck5NJF-4" value="+&amp;nbsp;&lt;b&gt;initReverbEffect&lt;/b&gt;() : void&lt;div&gt;+&amp;nbsp;&lt;b&gt;process&lt;/b&gt;(data_t inputData, data_t* outputData) : void&lt;/div&gt;&lt;div&gt;+ &lt;b&gt;tuneMix&lt;/b&gt;(coeff_t newMix) : void&lt;/div&gt;&lt;div&gt;+ &lt;b&gt;tuneReverbSize&lt;/b&gt;(reverbSize_t reverbSize) : void&lt;/div&gt;" style="text;strokeColor=none;fillColor=none;align=left;verticalAlign=top;spacingLeft=4;spacingRight=4;overflow=hidden;rotatable=0;points=[[0,0.5],[1,0.5]];portConstraint=eastwest;whiteSpace=wrap;html=1;" vertex="1" parent="Sr8w_J_Qba0QPRck5NJF-1">
          <mxGeometry y="128" width="220" height="102" as="geometry" />
        </mxCell>
        <mxCell id="Sr8w_J_Qba0QPRck5NJF-5" value="&amp;lt;&amp;lt;class&amp;gt;&amp;gt;&lt;br&gt;feedbackCombFilterArray" style="swimlane;fontStyle=1;align=center;verticalAlign=top;childLayout=stackLayout;horizontal=1;startSize=40;horizontalStack=0;resizeParent=1;resizeParentMax=0;resizeLast=0;collapsible=1;marginBottom=0;whiteSpace=wrap;html=1;" vertex="1" parent="1">
          <mxGeometry x="100" y="640" width="240" height="210" as="geometry" />
        </mxCell>
        <mxCell id="Sr8w_J_Qba0QPRck5NJF-6" value="&lt;div&gt;+ feedbackCombFilterSections : feedbackCombFilterSection[]&lt;/div&gt;&lt;div&gt;+ aValuesCombFilter : coeff_t[]&lt;/div&gt;&lt;div&gt;+ kValuesCombFilter : int[]&lt;/div&gt;" style="text;strokeColor=none;fillColor=none;align=left;verticalAlign=top;spacingLeft=4;spacingRight=4;overflow=hidden;rotatable=0;points=[[0,0.5],[1,0.5]];portConstraint=eastwest;whiteSpace=wrap;html=1;" vertex="1" parent="Sr8w_J_Qba0QPRck5NJF-5">
          <mxGeometry y="40" width="240" height="70" as="geometry" />
        </mxCell>
        <mxCell id="Sr8w_J_Qba0QPRck5NJF-7" value="" style="line;strokeWidth=1;fillColor=none;align=left;verticalAlign=middle;spacingTop=-1;spacingLeft=3;spacingRight=3;rotatable=0;labelPosition=right;points=[];portConstraint=eastwest;strokeColor=inherit;" vertex="1" parent="Sr8w_J_Qba0QPRck5NJF-5">
          <mxGeometry y="110" width="240" height="8" as="geometry" />
        </mxCell>
        <mxCell id="Sr8w_J_Qba0QPRck5NJF-8" value="+&amp;nbsp;&lt;b&gt;initfeedbackCombFilterArray&lt;/b&gt;() : void&lt;div&gt;+&amp;nbsp;&lt;b&gt;process&lt;/b&gt;(data_t inputData, data_t* outputData) : void&lt;/div&gt;&lt;div&gt;+ &lt;b&gt;tuneFeedbackCombFilter&lt;/b&gt;(reverbSize_t reverbSize) : void&lt;/div&gt;" style="text;strokeColor=none;fillColor=none;align=left;verticalAlign=top;spacingLeft=4;spacingRight=4;overflow=hidden;rotatable=0;points=[[0,0.5],[1,0.5]];portConstraint=eastwest;whiteSpace=wrap;html=1;" vertex="1" parent="Sr8w_J_Qba0QPRck5NJF-5">
          <mxGeometry y="118" width="240" height="92" as="geometry" />
        </mxCell>
        <mxCell id="Sr8w_J_Qba0QPRck5NJF-9" value="&amp;lt;&amp;lt;class&amp;gt;&amp;gt;&lt;br&gt;allpassReverberatorChain" style="swimlane;fontStyle=1;align=center;verticalAlign=top;childLayout=stackLayout;horizontal=1;startSize=40;horizontalStack=0;resizeParent=1;resizeParentMax=0;resizeLast=0;collapsible=1;marginBottom=0;whiteSpace=wrap;html=1;" vertex="1" parent="1">
          <mxGeometry x="450" y="640" width="240" height="210" as="geometry" />
        </mxCell>
        <mxCell id="Sr8w_J_Qba0QPRck5NJF-10" value="+ allpassReverberatorSections : allpassReverberatorSection[]&lt;div&gt;+ aValuesAllPass : coeff_t[]&lt;/div&gt;&lt;div&gt;+ delayValuesAllPass : int[]&lt;/div&gt;" style="text;strokeColor=none;fillColor=none;align=left;verticalAlign=top;spacingLeft=4;spacingRight=4;overflow=hidden;rotatable=0;points=[[0,0.5],[1,0.5]];portConstraint=eastwest;whiteSpace=wrap;html=1;" vertex="1" parent="Sr8w_J_Qba0QPRck5NJF-9">
          <mxGeometry y="40" width="240" height="70" as="geometry" />
        </mxCell>
        <mxCell id="Sr8w_J_Qba0QPRck5NJF-11" value="" style="line;strokeWidth=1;fillColor=none;align=left;verticalAlign=middle;spacingTop=-1;spacingLeft=3;spacingRight=3;rotatable=0;labelPosition=right;points=[];portConstraint=eastwest;strokeColor=inherit;" vertex="1" parent="Sr8w_J_Qba0QPRck5NJF-9">
          <mxGeometry y="110" width="240" height="8" as="geometry" />
        </mxCell>
        <mxCell id="Sr8w_J_Qba0QPRck5NJF-12" value="+&amp;nbsp;&lt;b&gt;initReverbEffect&lt;/b&gt;() : void&lt;div&gt;+&amp;nbsp;&lt;b&gt;process&lt;/b&gt;(data_t inputData, data_t* outputData) : void&lt;/div&gt;&lt;div&gt;+&amp;nbsp;&lt;b&gt;tuneAllpassReverberator&lt;/b&gt;(reverbSize_t reverbSize) : void&lt;/div&gt;" style="text;strokeColor=none;fillColor=none;align=left;verticalAlign=top;spacingLeft=4;spacingRight=4;overflow=hidden;rotatable=0;points=[[0,0.5],[1,0.5]];portConstraint=eastwest;whiteSpace=wrap;html=1;" vertex="1" parent="Sr8w_J_Qba0QPRck5NJF-9">
          <mxGeometry y="118" width="240" height="92" as="geometry" />
        </mxCell>
        <mxCell id="Sr8w_J_Qba0QPRck5NJF-13" value="&amp;lt;&amp;lt;class&amp;gt;&amp;gt;&lt;br&gt;feedbackCombFilterSection" style="swimlane;fontStyle=1;align=center;verticalAlign=top;childLayout=stackLayout;horizontal=1;startSize=40;horizontalStack=0;resizeParent=1;resizeParentMax=0;resizeLast=0;collapsible=1;marginBottom=0;whiteSpace=wrap;html=1;" vertex="1" parent="1">
          <mxGeometry x="100" y="890" width="240" height="170" as="geometry" />
        </mxCell>
        <mxCell id="Sr8w_J_Qba0QPRck5NJF-14" value="&lt;div&gt;&lt;span style=&quot;background-color: initial;&quot;&gt;+ aValues : coeff_t&lt;/span&gt;&lt;br&gt;&lt;/div&gt;&lt;div&gt;+ kValue: int&lt;/div&gt;" style="text;strokeColor=none;fillColor=none;align=left;verticalAlign=top;spacingLeft=4;spacingRight=4;overflow=hidden;rotatable=0;points=[[0,0.5],[1,0.5]];portConstraint=eastwest;whiteSpace=wrap;html=1;" vertex="1" parent="Sr8w_J_Qba0QPRck5NJF-13">
          <mxGeometry y="40" width="240" height="40" as="geometry" />
        </mxCell>
        <mxCell id="Sr8w_J_Qba0QPRck5NJF-15" value="" style="line;strokeWidth=1;fillColor=none;align=left;verticalAlign=middle;spacingTop=-1;spacingLeft=3;spacingRight=3;rotatable=0;labelPosition=right;points=[];portConstraint=eastwest;strokeColor=inherit;" vertex="1" parent="Sr8w_J_Qba0QPRck5NJF-13">
          <mxGeometry y="80" width="240" height="8" as="geometry" />
        </mxCell>
        <mxCell id="Sr8w_J_Qba0QPRck5NJF-16" value="+&amp;nbsp;&lt;b&gt;initfeedbackCombFilterArray&lt;/b&gt;() : void&lt;div&gt;+&amp;nbsp;&lt;b&gt;process&lt;/b&gt;(data_t inputData, data_t* outputData) : void&lt;/div&gt;&lt;div&gt;+ &lt;b&gt;tuneFeedbackCombFilter&lt;/b&gt;(reverbSize_t reverbSize) : void&lt;/div&gt;" style="text;strokeColor=none;fillColor=none;align=left;verticalAlign=top;spacingLeft=4;spacingRight=4;overflow=hidden;rotatable=0;points=[[0,0.5],[1,0.5]];portConstraint=eastwest;whiteSpace=wrap;html=1;" vertex="1" parent="Sr8w_J_Qba0QPRck5NJF-13">
          <mxGeometry y="88" width="240" height="82" as="geometry" />
        </mxCell>
        <mxCell id="Sr8w_J_Qba0QPRck5NJF-21" value="&amp;lt;&amp;lt;class&amp;gt;&amp;gt;&lt;br&gt;allpassReverberatorSection" style="swimlane;fontStyle=1;align=center;verticalAlign=top;childLayout=stackLayout;horizontal=1;startSize=40;horizontalStack=0;resizeParent=1;resizeParentMax=0;resizeLast=0;collapsible=1;marginBottom=0;whiteSpace=wrap;html=1;" vertex="1" parent="1">
          <mxGeometry x="450" y="890" width="240" height="170" as="geometry" />
        </mxCell>
        <mxCell id="Sr8w_J_Qba0QPRck5NJF-22" value="&lt;div&gt;+ aValue: coeff_t&lt;/div&gt;&lt;div&gt;+ delayValues : int&lt;/div&gt;" style="text;strokeColor=none;fillColor=none;align=left;verticalAlign=top;spacingLeft=4;spacingRight=4;overflow=hidden;rotatable=0;points=[[0,0.5],[1,0.5]];portConstraint=eastwest;whiteSpace=wrap;html=1;" vertex="1" parent="Sr8w_J_Qba0QPRck5NJF-21">
          <mxGeometry y="40" width="240" height="40" as="geometry" />
        </mxCell>
        <mxCell id="Sr8w_J_Qba0QPRck5NJF-23" value="" style="line;strokeWidth=1;fillColor=none;align=left;verticalAlign=middle;spacingTop=-1;spacingLeft=3;spacingRight=3;rotatable=0;labelPosition=right;points=[];portConstraint=eastwest;strokeColor=inherit;" vertex="1" parent="Sr8w_J_Qba0QPRck5NJF-21">
          <mxGeometry y="80" width="240" height="8" as="geometry" />
        </mxCell>
        <mxCell id="Sr8w_J_Qba0QPRck5NJF-24" value="+&amp;nbsp;&lt;b&gt;initReverbEffect&lt;/b&gt;() : void&lt;div&gt;+&amp;nbsp;&lt;b&gt;process&lt;/b&gt;(data_t inputData, data_t* outputData) : void&lt;/div&gt;&lt;div&gt;+&amp;nbsp;&lt;b&gt;tuneAllpassReverberator&lt;/b&gt;(reverbSize_t reverbSize) : void&lt;/div&gt;" style="text;strokeColor=none;fillColor=none;align=left;verticalAlign=top;spacingLeft=4;spacingRight=4;overflow=hidden;rotatable=0;points=[[0,0.5],[1,0.5]];portConstraint=eastwest;whiteSpace=wrap;html=1;" vertex="1" parent="Sr8w_J_Qba0QPRck5NJF-21">
          <mxGeometry y="88" width="240" height="82" as="geometry" />
        </mxCell>
        <mxCell id="psrLWogLoS34piW8DnaB-2" value="" style="endArrow=diamondThin;endFill=0;endSize=24;html=1;rounded=0;entryX=0.499;entryY=0.999;entryDx=0;entryDy=0;entryPerimeter=0;exitX=0.5;exitY=0;exitDx=0;exitDy=0;" edge="1" parent="1" source="Sr8w_J_Qba0QPRck5NJF-13" target="Sr8w_J_Qba0QPRck5NJF-8">
          <mxGeometry width="160" relative="1" as="geometry">
            <mxPoint x="-40" y="920" as="sourcePoint" />
            <mxPoint x="120" y="920" as="targetPoint" />
          </mxGeometry>
        </mxCell>
        <mxCell id="psrLWogLoS34piW8DnaB-3" value="" style="endArrow=diamondThin;endFill=0;endSize=24;html=1;rounded=0;entryX=0.497;entryY=1.005;entryDx=0;entryDy=0;entryPerimeter=0;exitX=0.5;exitY=0;exitDx=0;exitDy=0;" edge="1" parent="1" source="Sr8w_J_Qba0QPRck5NJF-21" target="Sr8w_J_Qba0QPRck5NJF-12">
          <mxGeometry width="160" relative="1" as="geometry">
            <mxPoint x="569" y="891" as="sourcePoint" />
            <mxPoint x="570" y="880" as="targetPoint" />
          </mxGeometry>
        </mxCell>
        <mxCell id="psrLWogLoS34piW8DnaB-4" value="" style="endArrow=diamondThin;endFill=0;endSize=24;html=1;rounded=0;entryX=0.498;entryY=1.008;entryDx=0;entryDy=0;entryPerimeter=0;exitX=0.5;exitY=0;exitDx=0;exitDy=0;edgeStyle=orthogonalEdgeStyle;" edge="1" parent="1" source="Sr8w_J_Qba0QPRck5NJF-5" target="Sr8w_J_Qba0QPRck5NJF-4">
          <mxGeometry width="160" relative="1" as="geometry">
            <mxPoint x="219.71" y="650" as="sourcePoint" />
            <mxPoint x="219.71" y="610" as="targetPoint" />
            <Array as="points">
              <mxPoint x="220" y="610" />
              <mxPoint x="390" y="610" />
            </Array>
          </mxGeometry>
        </mxCell>
        <mxCell id="psrLWogLoS34piW8DnaB-5" value="" style="endArrow=diamondThin;endFill=0;endSize=24;html=1;rounded=0;entryX=0.498;entryY=1.003;entryDx=0;entryDy=0;entryPerimeter=0;exitX=0.5;exitY=0;exitDx=0;exitDy=0;edgeStyle=orthogonalEdgeStyle;" edge="1" parent="1" source="Sr8w_J_Qba0QPRck5NJF-9" target="Sr8w_J_Qba0QPRck5NJF-4">
          <mxGeometry width="160" relative="1" as="geometry">
            <mxPoint x="250" y="950" as="sourcePoint" />
            <mxPoint x="250" y="910" as="targetPoint" />
            <Array as="points">
              <mxPoint x="570" y="610" />
              <mxPoint x="390" y="610" />
            </Array>
          </mxGeometry>
        </mxCell>
        <mxCell id="psrLWogLoS34piW8DnaB-6" value="&lt;b&gt;class &lt;/b&gt;ReverbEffect" style="shape=umlFrame;whiteSpace=wrap;html=1;pointerEvents=0;width=120;height=20;" vertex="1" parent="1">
          <mxGeometry x="80" y="320" width="630" height="760" as="geometry" />
        </mxCell>
      </root>
    </mxGraphModel>
  </diagram>
  <diagram id="MmZp-AKOv5V74Ldtqjj4" name="Sequence">
    <mxGraphModel dx="2022" dy="712" grid="1" gridSize="10" guides="1" tooltips="1" connect="1" arrows="1" fold="1" page="1" pageScale="1" pageWidth="827" pageHeight="1169" math="0" shadow="0">
      <root>
        <mxCell id="0" />
        <mxCell id="1" parent="0" />
        <mxCell id="12RsoMsVaCVzaIUU2BjO-1" value=":ReverbEffect" style="shape=umlLifeline;perimeter=lifelinePerimeter;whiteSpace=wrap;html=1;container=1;dropTarget=0;collapsible=0;recursiveResize=0;outlineConnect=0;portConstraint=eastwest;newEdgeStyle={&quot;curved&quot;:0,&quot;rounded&quot;:0};" vertex="1" parent="1">
          <mxGeometry x="120" y="120" width="80" height="420" as="geometry" />
        </mxCell>
        <mxCell id="12RsoMsVaCVzaIUU2BjO-6" value="" style="html=1;points=[[0,0,0,0,5],[0,1,0,0,-5],[1,0,0,0,5],[1,1,0,0,-5]];perimeter=orthogonalPerimeter;outlineConnect=0;targetShapes=umlLifeline;portConstraint=eastwest;newEdgeStyle={&quot;curved&quot;:0,&quot;rounded&quot;:0};" vertex="1" parent="12RsoMsVaCVzaIUU2BjO-1">
          <mxGeometry x="35" y="70" width="10" height="340" as="geometry" />
        </mxCell>
        <mxCell id="12RsoMsVaCVzaIUU2BjO-2" value=":FCFArray" style="shape=umlLifeline;perimeter=lifelinePerimeter;whiteSpace=wrap;html=1;container=1;dropTarget=0;collapsible=0;recursiveResize=0;outlineConnect=0;portConstraint=eastwest;newEdgeStyle={&quot;curved&quot;:0,&quot;rounded&quot;:0};" vertex="1" parent="1">
          <mxGeometry x="240" y="120" width="80" height="420" as="geometry" />
        </mxCell>
        <mxCell id="12RsoMsVaCVzaIUU2BjO-8" value="" style="html=1;points=[[0,0,0,0,5],[0,1,0,0,-5],[1,0,0,0,5],[1,1,0,0,-5]];perimeter=orthogonalPerimeter;outlineConnect=0;targetShapes=umlLifeline;portConstraint=eastwest;newEdgeStyle={&quot;curved&quot;:0,&quot;rounded&quot;:0};" vertex="1" parent="12RsoMsVaCVzaIUU2BjO-2">
          <mxGeometry x="35" y="70" width="10" height="340" as="geometry" />
        </mxCell>
        <mxCell id="12RsoMsVaCVzaIUU2BjO-3" value=":FCFSection" style="shape=umlLifeline;perimeter=lifelinePerimeter;whiteSpace=wrap;html=1;container=1;dropTarget=0;collapsible=0;recursiveResize=0;outlineConnect=0;portConstraint=eastwest;newEdgeStyle={&quot;curved&quot;:0,&quot;rounded&quot;:0};" vertex="1" parent="1">
          <mxGeometry x="360" y="120" width="80" height="420" as="geometry" />
        </mxCell>
        <mxCell id="12RsoMsVaCVzaIUU2BjO-9" value="" style="html=1;points=[[0,0,0,0,5],[0,1,0,0,-5],[1,0,0,0,5],[1,1,0,0,-5]];perimeter=orthogonalPerimeter;outlineConnect=0;targetShapes=umlLifeline;portConstraint=eastwest;newEdgeStyle={&quot;curved&quot;:0,&quot;rounded&quot;:0};" vertex="1" parent="12RsoMsVaCVzaIUU2BjO-3">
          <mxGeometry x="35" y="70" width="10" height="340" as="geometry" />
        </mxCell>
        <mxCell id="12RsoMsVaCVzaIUU2BjO-4" value=":APChain" style="shape=umlLifeline;perimeter=lifelinePerimeter;whiteSpace=wrap;html=1;container=1;dropTarget=0;collapsible=0;recursiveResize=0;outlineConnect=0;portConstraint=eastwest;newEdgeStyle={&quot;curved&quot;:0,&quot;rounded&quot;:0};" vertex="1" parent="1">
          <mxGeometry x="480" y="120" width="80" height="420" as="geometry" />
        </mxCell>
        <mxCell id="12RsoMsVaCVzaIUU2BjO-10" value="" style="html=1;points=[[0,0,0,0,5],[0,1,0,0,-5],[1,0,0,0,5],[1,1,0,0,-5]];perimeter=orthogonalPerimeter;outlineConnect=0;targetShapes=umlLifeline;portConstraint=eastwest;newEdgeStyle={&quot;curved&quot;:0,&quot;rounded&quot;:0};" vertex="1" parent="12RsoMsVaCVzaIUU2BjO-4">
          <mxGeometry x="35" y="70" width="10" height="340" as="geometry" />
        </mxCell>
        <mxCell id="12RsoMsVaCVzaIUU2BjO-5" value=":APSection" style="shape=umlLifeline;perimeter=lifelinePerimeter;whiteSpace=wrap;html=1;container=1;dropTarget=0;collapsible=0;recursiveResize=0;outlineConnect=0;portConstraint=eastwest;newEdgeStyle={&quot;curved&quot;:0,&quot;rounded&quot;:0};" vertex="1" parent="1">
          <mxGeometry x="600" y="120" width="80" height="420" as="geometry" />
        </mxCell>
        <mxCell id="12RsoMsVaCVzaIUU2BjO-11" value="" style="html=1;points=[[0,0,0,0,5],[0,1,0,0,-5],[1,0,0,0,5],[1,1,0,0,-5]];perimeter=orthogonalPerimeter;outlineConnect=0;targetShapes=umlLifeline;portConstraint=eastwest;newEdgeStyle={&quot;curved&quot;:0,&quot;rounded&quot;:0};" vertex="1" parent="12RsoMsVaCVzaIUU2BjO-5">
          <mxGeometry x="35" y="70" width="10" height="340" as="geometry" />
        </mxCell>
        <mxCell id="12RsoMsVaCVzaIUU2BjO-12" value="process(input data)" style="html=1;verticalAlign=bottom;endArrow=block;curved=0;rounded=0;" edge="1" parent="1" target="12RsoMsVaCVzaIUU2BjO-8">
          <mxGeometry y="7" width="80" relative="1" as="geometry">
            <mxPoint x="165" y="200" as="sourcePoint" />
            <mxPoint x="240" y="200" as="targetPoint" />
            <mxPoint as="offset" />
          </mxGeometry>
        </mxCell>
        <mxCell id="12RsoMsVaCVzaIUU2BjO-14" value="&lt;b&gt;loop&lt;/b&gt;" style="shape=umlFrame;whiteSpace=wrap;html=1;pointerEvents=0;width=40;height=20;" vertex="1" parent="1">
          <mxGeometry x="240" y="210" width="210" height="120" as="geometry" />
        </mxCell>
        <mxCell id="12RsoMsVaCVzaIUU2BjO-15" value="process(input data)" style="html=1;verticalAlign=bottom;endArrow=block;curved=0;rounded=0;" edge="1" parent="1">
          <mxGeometry width="80" relative="1" as="geometry">
            <mxPoint x="280" y="250" as="sourcePoint" />
            <mxPoint x="400" y="250" as="targetPoint" />
          </mxGeometry>
        </mxCell>
        <mxCell id="12RsoMsVaCVzaIUU2BjO-16" value="&lt;b&gt;[for each filter]&lt;/b&gt;" style="text;html=1;align=center;verticalAlign=middle;whiteSpace=wrap;rounded=0;" vertex="1" parent="1">
          <mxGeometry x="297" y="206" width="97.5" height="30" as="geometry" />
        </mxCell>
        <mxCell id="12RsoMsVaCVzaIUU2BjO-17" value="processed result" style="html=1;verticalAlign=bottom;endArrow=open;dashed=1;endSize=8;curved=0;rounded=0;" edge="1" parent="1" target="12RsoMsVaCVzaIUU2BjO-8">
          <mxGeometry relative="1" as="geometry">
            <mxPoint x="400" y="280" as="sourcePoint" />
            <mxPoint x="80" y="280" as="targetPoint" />
          </mxGeometry>
        </mxCell>
        <mxCell id="12RsoMsVaCVzaIUU2BjO-19" value="output += processed result" style="html=1;align=left;spacingLeft=2;endArrow=block;rounded=0;edgeStyle=orthogonalEdgeStyle;curved=0;rounded=0;" edge="1" parent="1">
          <mxGeometry relative="1" as="geometry">
            <mxPoint x="286" y="290" as="sourcePoint" />
            <Array as="points">
              <mxPoint x="310" y="320" />
            </Array>
            <mxPoint x="285" y="320" as="targetPoint" />
          </mxGeometry>
        </mxCell>
        <mxCell id="12RsoMsVaCVzaIUU2BjO-20" value="FCF Result" style="html=1;verticalAlign=bottom;endArrow=open;dashed=1;endSize=8;curved=0;rounded=0;" edge="1" parent="1">
          <mxGeometry x="0.2727" y="-1" relative="1" as="geometry">
            <mxPoint x="275" y="340" as="sourcePoint" />
            <mxPoint x="165" y="340" as="targetPoint" />
            <mxPoint as="offset" />
          </mxGeometry>
        </mxCell>
        <mxCell id="12RsoMsVaCVzaIUU2BjO-21" value="process(FCF Result)" style="html=1;verticalAlign=bottom;endArrow=block;curved=0;rounded=0;" edge="1" parent="1" target="12RsoMsVaCVzaIUU2BjO-4">
          <mxGeometry width="80" relative="1" as="geometry">
            <mxPoint x="166" y="379.58000000000004" as="sourcePoint" />
            <mxPoint x="281" y="379.58000000000004" as="targetPoint" />
          </mxGeometry>
        </mxCell>
        <mxCell id="12RsoMsVaCVzaIUU2BjO-22" value="&lt;b&gt;loop&lt;/b&gt;" style="shape=umlFrame;whiteSpace=wrap;html=1;pointerEvents=0;width=40;height=20;" vertex="1" parent="1">
          <mxGeometry x="470" y="344" width="210" height="86" as="geometry" />
        </mxCell>
        <mxCell id="12RsoMsVaCVzaIUU2BjO-23" value="process(data)" style="html=1;verticalAlign=bottom;endArrow=block;curved=0;rounded=0;" edge="1" parent="1">
          <mxGeometry x="0.0167" y="4" width="80" relative="1" as="geometry">
            <mxPoint x="520" y="384" as="sourcePoint" />
            <mxPoint x="640" y="384" as="targetPoint" />
            <mxPoint as="offset" />
          </mxGeometry>
        </mxCell>
        <mxCell id="12RsoMsVaCVzaIUU2BjO-24" value="&lt;b&gt;[for each filter]&lt;/b&gt;" style="text;html=1;align=center;verticalAlign=middle;whiteSpace=wrap;rounded=0;" vertex="1" parent="1">
          <mxGeometry x="537" y="340" width="97.5" height="30" as="geometry" />
        </mxCell>
        <mxCell id="12RsoMsVaCVzaIUU2BjO-25" value="processed result" style="html=1;verticalAlign=bottom;endArrow=open;dashed=1;endSize=8;curved=0;rounded=0;" edge="1" parent="1">
          <mxGeometry relative="1" as="geometry">
            <mxPoint x="640" y="414" as="sourcePoint" />
            <mxPoint x="525" y="414" as="targetPoint" />
          </mxGeometry>
        </mxCell>
        <mxCell id="12RsoMsVaCVzaIUU2BjO-27" value="AP Result" style="html=1;verticalAlign=bottom;endArrow=open;dashed=1;endSize=8;curved=0;rounded=0;" edge="1" parent="1" target="12RsoMsVaCVzaIUU2BjO-6">
          <mxGeometry x="0.2727" y="-1" relative="1" as="geometry">
            <mxPoint x="640" y="480" as="sourcePoint" />
            <mxPoint x="530" y="480" as="targetPoint" />
            <mxPoint as="offset" />
          </mxGeometry>
        </mxCell>
        <mxCell id="12RsoMsVaCVzaIUU2BjO-28" value=":Effect Chain" style="shape=umlLifeline;perimeter=lifelinePerimeter;whiteSpace=wrap;html=1;container=1;dropTarget=0;collapsible=0;recursiveResize=0;outlineConnect=0;portConstraint=eastwest;newEdgeStyle={&quot;curved&quot;:0,&quot;rounded&quot;:0};" vertex="1" parent="1">
          <mxGeometry y="120" width="80" height="420" as="geometry" />
        </mxCell>
        <mxCell id="12RsoMsVaCVzaIUU2BjO-29" value="" style="html=1;points=[[0,0,0,0,5],[0,1,0,0,-5],[1,0,0,0,5],[1,1,0,0,-5]];perimeter=orthogonalPerimeter;outlineConnect=0;targetShapes=umlLifeline;portConstraint=eastwest;newEdgeStyle={&quot;curved&quot;:0,&quot;rounded&quot;:0};" vertex="1" parent="12RsoMsVaCVzaIUU2BjO-28">
          <mxGeometry x="35" y="70" width="10" height="340" as="geometry" />
        </mxCell>
        <mxCell id="12RsoMsVaCVzaIUU2BjO-30" value="process(sample data)" style="html=1;verticalAlign=bottom;endArrow=block;curved=0;rounded=0;" edge="1" parent="1" target="12RsoMsVaCVzaIUU2BjO-6">
          <mxGeometry y="7" width="80" relative="1" as="geometry">
            <mxPoint x="40" y="190" as="sourcePoint" />
            <mxPoint x="150" y="190" as="targetPoint" />
            <mxPoint as="offset" />
          </mxGeometry>
        </mxCell>
        <mxCell id="12RsoMsVaCVzaIUU2BjO-31" value="Audio with reverb" style="html=1;verticalAlign=bottom;endArrow=open;dashed=1;endSize=8;curved=0;rounded=0;" edge="1" parent="1">
          <mxGeometry x="-0.0182" y="-8" relative="1" as="geometry">
            <mxPoint x="154" y="498" as="sourcePoint" />
            <mxPoint x="44" y="498" as="targetPoint" />
            <mxPoint as="offset" />
          </mxGeometry>
        </mxCell>
        <mxCell id="12RsoMsVaCVzaIUU2BjO-32" value="&lt;font style=&quot;font-size: 11px;&quot;&gt;The first input audio is from the FCF result. The rest of the filters receive the output from the previous filter as input.&lt;/font&gt;&lt;div&gt;&lt;font style=&quot;font-size: 11px;&quot;&gt;&lt;br&gt;&lt;/font&gt;&lt;/div&gt;&lt;div&gt;&lt;br&gt;&lt;/div&gt;" style="shape=note2;boundedLbl=1;whiteSpace=wrap;html=1;size=25;verticalAlign=top;align=center;" vertex="1" parent="1">
          <mxGeometry x="660" y="200" width="120" height="120" as="geometry" />
        </mxCell>
        <mxCell id="12RsoMsVaCVzaIUU2BjO-33" value="" style="endArrow=none;dashed=1;html=1;strokeWidth=2;rounded=0;entryX=0;entryY=1;entryDx=0;entryDy=0;entryPerimeter=0;" edge="1" parent="1" target="12RsoMsVaCVzaIUU2BjO-32">
          <mxGeometry width="50" height="50" relative="1" as="geometry">
            <mxPoint x="680" y="344" as="sourcePoint" />
            <mxPoint x="770" y="420" as="targetPoint" />
          </mxGeometry>
        </mxCell>
        <mxCell id="12RsoMsVaCVzaIUU2BjO-34" value="&lt;b&gt;seq&lt;/b&gt; reverb processing" style="shape=umlFrame;whiteSpace=wrap;html=1;pointerEvents=0;width=140;height=20;" vertex="1" parent="1">
          <mxGeometry x="-20" y="90" width="820" height="460" as="geometry" />
        </mxCell>
      </root>
    </mxGraphModel>
  </diagram>
</mxfile>
